HIERARCHY
ROOT Hips
{
	OFFSET 0.000000 83.214638 0.000000
	CHANNELS 6 Xposition Yposition Zposition Xrotation Yrotation Zrotation
	JOINT Pelvis
	{
		OFFSET 0.000000 0.000000 0.000000
		CHANNELS 3 Xrotation Yrotation Zrotation
		JOINT LeftUpLeg
		{
			OFFSET 8.479700 -4.795502 -0.379100
			CHANNELS 3 Xrotation Yrotation Zrotation
			JOINT LeftLeg
			{
				OFFSET 0.024144 -32.555107 0.112900
				CHANNELS 3 Xrotation Yrotation Zrotation
				JOINT LeftFoot
				{
					OFFSET -0.024144 -32.638630 -3.012600
					CHANNELS 3 Xrotation Yrotation Zrotation
					JOINT LeftToeBase
					{
						OFFSET 0.970200 -13.225400 11.864200
						CHANNELS 3 Xrotation Yrotation Zrotation
						End Site
						{
							OFFSET 0.000000 12.319262 0.000000
						}
					}
					JOINT LFootTongue
					{
						OFFSET 1.142400 -1.059800 6.665200
						CHANNELS 3 Xrotation Yrotation Zrotation
						End Site
						{
							OFFSET 0.000000 12.319262 0.000000
						}
					}
				}
				JOINT LeftPantLeg
				{
					OFFSET 0.918482 -16.533964 -2.284700
					CHANNELS 3 Xrotation Yrotation Zrotation
					End Site
					{
						OFFSET 0.350399 24.744368 0.000000
					}
				}
			}
		}
		JOINT RightUpLeg
		{
			OFFSET -8.479700 -4.795502 -0.379100
			CHANNELS 3 Xrotation Yrotation Zrotation
			JOINT RightLeg
			{
				OFFSET -0.023144 -32.555092 0.112900
				CHANNELS 3 Xrotation Yrotation Zrotation
				JOINT RightFoot
				{
					OFFSET 0.023144 -32.638641 -3.012700
					CHANNELS 3 Xrotation Yrotation Zrotation
					JOINT RightToeBase
					{
						OFFSET -0.970200 -13.225400 11.864200
						CHANNELS 3 Xrotation Yrotation Zrotation
						End Site
						{
							OFFSET 0.000000 12.319244 0.000000
						}
					}
					JOINT RFootTongue
					{
						OFFSET -1.142200 -1.059800 6.665200
						CHANNELS 3 Xrotation Yrotation Zrotation
						End Site
						{
							OFFSET 0.000000 12.319243 0.000000
						}
					}
				}
				JOINT RightPantLeg
				{
					OFFSET -0.919482 -16.533978 -2.284800
					CHANNELS 3 Xrotation Yrotation Zrotation
					End Site
					{
						OFFSET -0.350400 24.744419 0.000000
					}
				}
			}
		}
	}
	JOINT Spine
	{
		OFFSET 0.000000 7.722000 1.166200
		CHANNELS 3 Xrotation Yrotation Zrotation
		JOINT Spine1
		{
			OFFSET 0.000000 12.024101 0.248800
			CHANNELS 3 Xrotation Yrotation Zrotation
			JOINT Spine2
			{
				OFFSET 0.000000 11.502998 -0.491200
				CHANNELS 3 Xrotation Yrotation Zrotation
				JOINT Neck
				{
					OFFSET 0.000000 18.430702 -3.123100
					CHANNELS 3 Xrotation Yrotation Zrotation
					JOINT Head
					{
						OFFSET 0.000000 9.051102 1.034000
						CHANNELS 3 Xrotation Yrotation Zrotation
						JOINT HairB
						{
							OFFSET 0.208400 24.786102 24.822300
							CHANNELS 3 Xrotation Yrotation Zrotation
							End Site
							{
								OFFSET 0.000000 32.263779 0.000000
							}
						}
						JOINT HairA
						{
							OFFSET -7.081100 24.428299 23.196600
							CHANNELS 3 Xrotation Yrotation Zrotation
							End Site
							{
								OFFSET 0.000000 32.263779 0.000000
							}
						}
						JOINT Hat
						{
							OFFSET 16.728800 15.048294 -15.439601
							CHANNELS 3 Xrotation Yrotation Zrotation
							End Site
							{
								OFFSET 0.000000 32.263779 0.000000
							}
						}
					}
				}
				JOINT LeftShoulder
				{
					OFFSET 6.197800 13.665199 -4.064700
					CHANNELS 3 Xrotation Yrotation Zrotation
					JOINT LeftArm
					{
						OFFSET 7.778100 -0.187103 -1.709300
						CHANNELS 3 Xrotation Yrotation Zrotation
						JOINT LeftForeArm
						{
							OFFSET 22.049376 0.000000 0.000000
							CHANNELS 3 Xrotation Yrotation Zrotation
							JOINT LeftHand
							{
								OFFSET 23.009392 0.000000 0.000000
								CHANNELS 3 Xrotation Yrotation Zrotation
								JOINT LeftHandThumb1
								{
									OFFSET 3.507191 -2.063065 3.133727
									CHANNELS 3 Xrotation Yrotation Zrotation
									JOINT LeftHandThumb2
									{
										OFFSET 3.101337 -1.790558 1.790558
										CHANNELS 3 Xrotation Yrotation Zrotation
										JOINT LeftHandThumb3
										{
											OFFSET 3.058640 -1.765907 1.765906
											CHANNELS 3 Xrotation Yrotation Zrotation
											End Site
											{
												OFFSET -0.415260 3.926476 -0.049563
											}
										}
									}
								}
								JOINT LeftHandIndex1
								{
									OFFSET 11.334419 -0.901459 3.706815
									CHANNELS 3 Xrotation Yrotation Zrotation
									JOINT LeftHandIndex2
									{
										OFFSET 3.283112 0.000000 0.000000
										CHANNELS 3 Xrotation Yrotation Zrotation
										JOINT LeftHandIndex3
										{
											OFFSET 3.323853 0.000000 0.000000
											CHANNELS 3 Xrotation Yrotation Zrotation
											End Site
											{
												OFFSET -1.135597 3.097809 0.402452
											}
										}
									}
								}
								JOINT LeftHandMiddle1
								{
									OFFSET 11.335861 0.000000 0.000000
									CHANNELS 3 Xrotation Yrotation Zrotation
									JOINT LeftHandMiddle2
									{
										OFFSET 3.410492 0.000000 0.000000
										CHANNELS 3 Xrotation Yrotation Zrotation
										JOINT LeftHandMiddle3
										{
											OFFSET 3.312172 0.000000 0.000000
											CHANNELS 3 Xrotation Yrotation Zrotation
											End Site
											{
												OFFSET -1.150200 3.080154 0.400270
											}
										}
									}
								}
								JOINT LeftHandRing1
								{
									OFFSET 11.514786 -0.013176 -3.003090
									CHANNELS 3 Xrotation Yrotation Zrotation
									JOINT LeftHandRing2
									{
										OFFSET 3.053307 0.000000 0.000000
										CHANNELS 3 Xrotation Yrotation Zrotation
										JOINT LeftHandRing3
										{
											OFFSET 3.295807 0.000000 0.000000
											CHANNELS 3 Xrotation Yrotation Zrotation
											End Site
											{
												OFFSET -1.281006 3.013344 0.375733
											}
										}
									}
								}
								JOINT LeftHandPinky1
								{
									OFFSET 10.518692 -0.960396 -5.730441
									CHANNELS 3 Xrotation Yrotation Zrotation
									JOINT LeftHandPinky2
									{
										OFFSET 2.861649 0.000000 0.000000
										CHANNELS 3 Xrotation Yrotation Zrotation
										JOINT LeftHandPinky3
										{
											OFFSET 2.863380 0.000000 0.000000
											CHANNELS 3 Xrotation Yrotation Zrotation
											End Site
											{
												OFFSET -0.843597 2.711159 0.369971
											}
										}
									}
								}
							}
							JOINT LSleeve
							{
								OFFSET 6.676277 -0.344902 -1.011730
								CHANNELS 3 Xrotation Yrotation Zrotation
								End Site
								{
									OFFSET 0.000000 14.885353 0.000000
								}
							}
						}
					}
				}
				JOINT RightShoulder
				{
					OFFSET -6.197800 13.665199 -4.064700
					CHANNELS 3 Xrotation Yrotation Zrotation
					JOINT RightArm
					{
						OFFSET -7.778100 -0.187103 -1.709300
						CHANNELS 3 Xrotation Yrotation Zrotation
						JOINT RightForeArm
						{
							OFFSET -22.049376 0.000000 0.000000
							CHANNELS 3 Xrotation Yrotation Zrotation
							JOINT RightHand
							{
								OFFSET -23.009392 0.000000 0.000000
								CHANNELS 3 Xrotation Yrotation Zrotation
								JOINT RightHandThumb1
								{
									OFFSET -3.507191 -2.063065 3.133727
									CHANNELS 3 Xrotation Yrotation Zrotation
									JOINT RightHandThumb2
									{
										OFFSET -3.101337 -1.790558 1.790558
										CHANNELS 3 Xrotation Yrotation Zrotation
										JOINT RightHandThumb3
										{
											OFFSET -3.058640 -1.765907 1.765906
											CHANNELS 3 Xrotation Yrotation Zrotation
											End Site
											{
												OFFSET 0.415260 3.926476 -0.049563
											}
										}
									}
								}
								JOINT RightHandIndex1
								{
									OFFSET -11.334419 -0.901459 3.706815
									CHANNELS 3 Xrotation Yrotation Zrotation
									JOINT RightHandIndex2
									{
										OFFSET -3.283112 0.000000 0.000000
										CHANNELS 3 Xrotation Yrotation Zrotation
										JOINT RightHandIndex3
										{
											OFFSET -3.323853 0.000000 0.000000
											CHANNELS 3 Xrotation Yrotation Zrotation
											End Site
											{
												OFFSET 1.135597 3.097809 0.402452
											}
										}
									}
								}
								JOINT RightHandMiddle1
								{
									OFFSET -11.335861 0.000000 0.000000
									CHANNELS 3 Xrotation Yrotation Zrotation
									JOINT RightHandMiddle2
									{
										OFFSET -3.410492 0.000000 0.000000
										CHANNELS 3 Xrotation Yrotation Zrotation
										JOINT RightHandMiddle3
										{
											OFFSET -3.312172 0.000000 0.000000
											CHANNELS 3 Xrotation Yrotation Zrotation
											End Site
											{
												OFFSET 1.150200 3.080154 0.400270
											}
										}
									}
								}
								JOINT RightHandRing1
								{
									OFFSET -11.514786 -0.013176 -3.003090
									CHANNELS 3 Xrotation Yrotation Zrotation
									JOINT RightHandRing2
									{
										OFFSET -3.053307 0.000000 0.000000
										CHANNELS 3 Xrotation Yrotation Zrotation
										JOINT RightHandRing3
										{
											OFFSET -3.295807 0.000000 0.000000
											CHANNELS 3 Xrotation Yrotation Zrotation
											End Site
											{
												OFFSET 1.281006 3.013344 0.375733
											}
										}
									}
								}
								JOINT RightHandPinky1
								{
									OFFSET -10.518692 -0.960396 -5.730441
									CHANNELS 3 Xrotation Yrotation Zrotation
									JOINT RightHandPinky2
									{
										OFFSET -2.861649 0.000000 0.000000
										CHANNELS 3 Xrotation Yrotation Zrotation
										JOINT RightHandPinky3
										{
											OFFSET -2.863380 0.000000 0.000000
											CHANNELS 3 Xrotation Yrotation Zrotation
											End Site
											{
												OFFSET 0.843597 2.711159 0.369971
											}
										}
									}
								}
							}
							JOINT RSleeve
							{
								OFFSET -6.676277 -0.344902 -1.011730
								CHANNELS 3 Xrotation Yrotation Zrotation
								End Site
								{
									OFFSET 0.000000 14.885353 0.000000
								}
							}
						}
					}
				}
				JOINT Backpack
				{
					OFFSET 0.000000 -2.471497 36.677502
					CHANNELS 3 Xrotation Yrotation Zrotation
					End Site
					{
						OFFSET 0.000000 20.427315 0.000000
					}
				}
				JOINT Hood
				{
					OFFSET 0.000000 18.754097 -10.431000
					CHANNELS 3 Xrotation Yrotation Zrotation
					JOINT Hood1
					{
						OFFSET 0.000000 -5.011002 -7.685901
						CHANNELS 3 Xrotation Yrotation Zrotation
						End Site
						{
							OFFSET 0.000000 9.175140 0.000000
						}
					}
				}
				JOINT LHoodieString
				{
					OFFSET 5.250500 16.397697 3.089900
					CHANNELS 3 Xrotation Yrotation Zrotation
					JOINT LHoodieString1
					{
						OFFSET 0.257700 -6.364304 3.694600
						CHANNELS 3 Xrotation Yrotation Zrotation
						JOINT LHoodieString2
						{
							OFFSET 0.000000 -9.643799 2.679100
							CHANNELS 3 Xrotation Yrotation Zrotation
							End Site
							{
								OFFSET 0.000000 10.009018 0.000000
							}
						}
					}
				}
				JOINT RHoodieString
				{
					OFFSET -5.250500 16.397697 3.089900
					CHANNELS 3 Xrotation Yrotation Zrotation
					JOINT RHoodieString1
					{
						OFFSET -0.257700 -6.364304 3.694600
						CHANNELS 3 Xrotation Yrotation Zrotation
						JOINT RHoodieString2
						{
							OFFSET 0.000000 -9.643799 2.679100
							CHANNELS 3 Xrotation Yrotation Zrotation
							End Site
							{
								OFFSET 0.000000 10.009018 0.000000
							}
						}
					}
				}
			}
			JOINT LBackpack_Strap
			{
				OFFSET 15.223200 -7.719803 -6.610900
				CHANNELS 3 Xrotation Yrotation Zrotation
				End Site
				{
					OFFSET 0.000000 16.040596 0.000000
				}
			}
			JOINT RBackpack_Strap
			{
				OFFSET -15.223000 -7.719803 -6.610900
				CHANNELS 3 Xrotation Yrotation Zrotation
				End Site
				{
					OFFSET 0.000000 16.040596 0.000000
				}
			}
		}
	}
	JOINT BoyFacialAnim_Joint
	{
		OFFSET 1.000000 -82.208099 -1.550900
		CHANNELS 3 Xrotation Yrotation Zrotation
		End Site
		{
			OFFSET 0.000000 30.012791 0.000000
		}
	}
}
MOTION
Frames: 4
Frame Time: 0.033333
-0.398128 75.848251 0.492471 -1.378880 -30.033995 -0.142253 -0.000000 0.000002 0.000000 -31.747153 8.889895 17.538167 34.428514 -8.942196 6.212014 -4.951742 -7.738634 -16.481532 0.000000 0.000003 -0.000000 0.000000 0.000003 -0.000000 -0.000001 0.000001 -0.000000 2.159424 -14.527864 -16.953629 26.241320 -7.629682 -0.083218 -23.235450 -5.076115 20.196497 0.000000 0.000000 -0.000000 0.000000 0.000000 -0.000000 0.000002 -0.000003 -0.000000 6.795499 6.630226 0.451485 2.751933 0.894540 -0.156708 2.754315 0.890633 -0.134469 6.482589 1.021656 -1.328973 7.924932 3.305357 -4.510750 0.000001 0.000000 -0.000000 0.000001 0.000000 -0.000000 0.000001 0.000000 -0.000000 4.101058 4.083146 -11.591604 -24.335180 -24.575681 -61.177301 0.000036 -120.157958 0.000027 17.341224 -4.117341 9.259375 22.112872 14.183686 -23.763931 34.105484 50.688572 3.889578 -0.000001 -0.000001 0.000003 8.149267 6.763926 -100.644053 9.380666 6.413257 -111.345396 -0.000003 0.000004 -0.000005 7.695064 6.833622 -97.472619 8.660484 6.648241 -105.019916 0.000001 0.000002 0.000001 8.387193 6.715515 -103.261921 8.599803 6.664134 -104.496437 -0.000002 0.000006 -0.000001 9.359322 6.593099 -98.350032 7.516330 2.765577 -95.301220 0.000001 -0.000002 -0.000000 -0.000001 -0.000001 -0.000001 6.618856 17.735956 5.498477 -47.990190 28.884416 65.250867 0.000049 123.639278 -0.000050 -7.564591 10.575719 -14.672604 24.135102 -7.619444 9.651679 63.443769 -18.003788 11.344474 -0.000001 -0.000000 -0.000000 8.943578 -6.656939 106.727307 9.724450 -6.372011 113.601912 -0.000000 0.000001 0.000000 8.129520 -6.848929 100.936474 8.172060 -6.840123 100.169102 0.000000 0.000000 -0.000004 7.958247 -6.883649 101.260129 9.368572 -6.515005 110.431701 0.000000 0.000002 0.000003 7.846258 -6.890220 97.444041 7.846286 -6.890259 97.444062 0.000001 -0.000001 -0.000002 -0.000000 -0.000001 0.000002 0.000001 0.000001 -0.000000 0.000001 0.000001 -0.000000 0.000001 0.000001 -0.000000 0.000001 0.000001 -0.000000 0.000001 0.000001 0.000000 0.000001 -0.000001 -0.000000 0.000001 0.000001 -0.000000 0.000001 0.000001 0.000000 0.000001 -0.000001 -0.000000 -0.000000 -0.000000 0.000000 -0.000000 -0.000000 0.000000 -0.000000 0.000002 0.000000 
-0.688111 75.588409 0.354397 -2.397722 -29.599362 -0.333561 -0.000000 0.000000 0.000000 -33.232671 8.548624 17.878884 37.375280 -8.688746 6.279979 -2.756509 -9.916495 -16.102574 -0.000000 -0.000002 0.000000 -0.000000 -0.000002 0.000000 -0.000000 0.000001 0.000001 2.445258 -14.975005 -17.649736 27.891950 -6.772253 0.525129 -24.535802 -5.199411 19.662458 -0.000000 0.000003 0.000000 -0.000000 0.000003 0.000000 -0.000000 -0.000001 -0.000002 6.718430 6.698249 0.997463 2.932204 0.900658 -0.270260 2.936427 0.893723 -0.245459 6.622834 1.027789 -1.429338 7.996246 3.289986 -4.498840 -0.000000 0.000001 0.000000 -0.000000 0.000001 0.000000 -0.000000 0.000001 0.000000 4.029507 5.420896 -11.822491 -21.901862 -25.206444 -62.703930 0.000026 -119.419068 0.000037 17.366519 -4.649269 9.348571 22.112884 14.183681 -23.763936 34.105474 50.688565 3.889581 -0.000000 -0.000001 0.000001 8.149275 6.763918 -100.644067 9.380671 6.413256 -111.345396 -0.000002 -0.000000 -0.000004 7.695082 6.833624 -97.472660 8.660498 6.648238 -105.019910 0.000003 -0.000000 0.000002 8.387208 6.715504 -103.261955 8.599797 6.664132 -104.496403 0.000001 0.000000 -0.000005 9.359334 6.593093 -98.350080 7.516332 2.765569 -95.301220 0.000000 0.000002 -0.000003 0.000002 0.000002 0.000004 6.495298 17.219889 5.583517 -46.176027 29.320151 64.674972 0.000050 123.011010 -0.000049 -7.505341 10.936815 -14.426830 24.135093 -7.619440 9.651685 63.443763 -18.003772 11.344481 0.000001 0.000000 -0.000001 8.943579 -6.656934 106.727313 9.724450 -6.372012 113.601919 -0.000000 -0.000001 0.000002 8.129516 -6.848929 100.936454 8.172064 -6.840126 100.169143 0.000001 0.000000 -0.000000 7.958248 -6.883646 101.260143 9.368567 -6.515003 110.431673 -0.000001 -0.000001 -0.000005 7.846260 -6.890217 97.444041 7.846285 -6.890255 97.444103 -0.000000 -0.000001 -0.000002 -0.000001 0.000001 -0.000002 0.000001 0.000000 0.000000 0.000001 0.000000 0.000000 0.000001 0.000000 0.000000 0.000001 0.000000 0.000000 0.000001 0.000000 0.000000 0.000001 0.000002 -0.000000 0.000001 0.000000 0.000000 0.000001 0.000000 0.000000 0.000001 0.000002 -0.000000 -0.000000 -0.000001 -0.000000 -0.000000 -0.000001 -0.000000 -0.000000 0.000000 0.000000 
-0.960922 75.325081 0.304348 -3.202210 -29.292250 -0.484149 0.000000 0.000001 -0.000000 -34.893387 8.095704 18.412650 40.239264 -8.588606 6.120455 -0.129831 -12.484249 -15.394746 -0.000000 -0.000001 -0.000000 -0.000000 -0.000001 -0.000000 -0.000000 0.000001 0.000003 2.685598 -15.159975 -18.005547 29.341987 -6.527343 0.679478 -25.593042 -5.373586 19.544098 0.000000 0.000002 -0.000000 0.000000 0.000002 -0.000000 -0.000001 0.000001 -0.000002 6.610859 6.648653 0.887413 3.081165 0.889191 -0.215303 3.084068 0.885001 -0.188935 6.653447 1.005945 -1.396874 7.866521 3.220742 -4.420739 -0.000003 0.000001 0.000000 -0.000003 0.000001 0.000000 -0.000003 0.000001 0.000000 3.888263 6.841580 -12.015426 -19.529382 -25.951845 -63.838670 0.000002 -118.467200 0.000011 16.905273 -5.378753 8.873396 22.112893 14.183682 -23.763931 34.105488 50.688576 3.889576 0.000001 -0.000001 0.000000 8.149271 6.763926 -100.644053 9.380667 6.413245 -111.345402 -0.000001 0.000002 -0.000005 7.695076 6.833615 -97.472639 8.660497 6.648234 -105.019937 -0.000000 -0.000002 0.000002 8.387205 6.715503 -103.261955 8.599794 6.664126 -104.496423 -0.000000 -0.000003 -0.000008 9.359328 6.593099 -98.350052 7.516339 2.765569 -95.301220 0.000000 -0.000001 -0.000000 -0.000002 -0.000003 0.000006 6.258751 16.446747 5.706381 -44.545551 29.261487 64.420671 0.000106 122.067611 -0.000114 -8.012513 11.356389 -14.139123 24.135093 -7.619440 9.651694 63.443763 -18.003793 11.344470 0.000001 -0.000000 0.000001 8.943579 -6.656938 106.727300 9.724454 -6.372013 113.601919 -0.000001 -0.000001 0.000005 8.129515 -6.848932 100.936454 8.172061 -6.840125 100.169102 0.000001 0.000000 0.000002 7.958244 -6.883648 101.260123 9.368566 -6.515004 110.431694 -0.000001 -0.000000 0.000002 7.846259 -6.890216 97.444041 7.846286 -6.890257 97.444082 0.000000 0.000001 -0.000001 -0.000000 0.000001 -0.000002 0.000001 -0.000000 -0.000000 0.000001 -0.000000 -0.000000 0.000001 -0.000000 -0.000000 0.000001 -0.000000 -0.000000 0.000001 -0.000000 -0.000000 -0.000000 0.000001 -0.000001 0.000001 -0.000000 -0.000000 0.000001 -0.000000 -0.000000 -0.000000 0.000001 -0.000001 0.000000 -0.000001 -0.000000 0.000000 -0.000001 -0.000000 0.000000 0.000001 -0.000000 
-1.261127 75.215759 0.290877 -3.810602 -29.129876 -0.464876 -0.000000 0.000001 0.000000 -35.870811 7.548200 19.031024 41.598796 -8.969743 5.857254 2.701854 -13.701517 -16.726971 -0.000000 -0.000001 -0.000000 -0.000000 -0.000001 0.000000 -0.000000 -0.000001 0.000001 3.137449 -15.176530 -18.010384 29.965020 -6.825085 0.382569 -26.138142 -5.530893 19.706619 -0.000000 0.000002 -0.000000 -0.000000 0.000002 -0.000000 -0.000001 -0.000001 0.000000 6.580590 6.427890 0.530546 3.185362 0.856744 -0.158169 3.186765 0.856059 -0.131598 6.591776 0.961453 -1.250434 7.652008 3.102336 -4.302784 0.000000 0.000001 -0.000001 0.000000 0.000001 -0.000001 0.000000 0.000001 -0.000001 3.730914 7.911733 -12.107762 -17.871270 -26.701178 -64.147812 0.000061 -117.260414 0.000065 16.318799 -6.047548 8.129097 22.112874 14.183684 -23.763936 34.105505 50.688586 3.889573 -0.000001 -0.000000 0.000002 8.149269 6.763924 -100.644067 9.380660 6.413259 -111.345402 -0.000001 0.000001 -0.000002 7.695070 6.833620 -97.472639 8.660491 6.648238 -105.019923 0.000003 0.000000 -0.000001 8.387197 6.715499 -103.261928 8.599800 6.664121 -104.496403 -0.000001 -0.000000 -0.000004 9.359322 6.593099 -98.350045 7.516325 2.765575 -95.301220 -0.000002 -0.000001 0.000003 -0.000000 0.000003 0.000001 5.927765 15.502354 5.844788 -43.496892 28.912703 64.556749 0.000002 121.213168 -0.000003 -8.867662 11.753810 -13.741662 24.135090 -7.619440 9.651690 63.443783 -18.003796 11.344476 0.000000 -0.000000 -0.000002 8.943576 -6.656932 106.727313 9.724442 -6.372014 113.601912 -0.000001 -0.000000 -0.000000 8.129514 -6.848933 100.936447 8.172070 -6.840127 100.169116 0.000001 0.000000 -0.000000 7.958242 -6.883648 101.260136 9.368569 -6.515006 110.431714 0.000001 0.000001 0.000001 7.846257 -6.890218 97.444034 7.846280 -6.890259 97.444075 0.000001 0.000000 0.000000 0.000001 -0.000001 0.000001 0.000000 0.000000 0.000000 0.000000 0.000000 0.000000 0.000000 0.000000 0.000000 0.000000 0.000000 0.000000 0.000000 0.000000 0.000000 -0.000000 -0.000002 -0.000000 0.000000 0.000000 0.000000 0.000000 0.000000 0.000000 -0.000000 -0.000002 -0.000000 -0.000000 0.000003 -0.000000 -0.000000 0.000003 -0.000000 -0.000000 0.000001 0.000000 
